<?xml version="1.0" standalone="no"?>
<!DOCTYPE svg PUBLIC "-//W3C//DTD SVG 20010904//EN"
 "http://www.w3.org/TR/2001/REC-SVG-20010904/DTD/svg10.dtd">
<svg version="1.0" xmlns="http://www.w3.org/2000/svg"
 width="500.000000pt" height="500.000000pt" viewBox="0 0 500.000000 500.000000"
 preserveAspectRatio="xMidYMid meet">

<g transform="translate(0.000000,500.000000) scale(0.100000,-0.100000)"
fill="#000000" stroke="none">
<path d="M2926 3179 c-17 -13 -26 -30 -26 -48 0 -23 -26 -48 -180 -171 -198
-160 -198 -160 -57 -141 142 19 144 20 227 125 60 77 80 95 102 95 33 1 68 43
68 83 0 17 -10 39 -25 53 -30 31 -73 32 -109 4z"/>
<path d="M1960 2876 c0 -39 19 -51 141 -94 132 -47 266 -65 427 -60 121 4 148
9 235 38 54 18 126 51 160 73 88 55 92 62 17 29 -36 -16 -105 -40 -155 -53
-81 -22 -111 -24 -290 -23 -184 0 -208 2 -297 26 -53 15 -128 42 -167 61 l-71
35 0 -32z"/>
<path d="M1940 2728 c0 -168 49 -288 165 -403 114 -115 235 -165 399 -165 44
0 77 3 74 6 -3 3 -36 12 -72 19 -210 44 -379 217 -417 427 -7 38 -10 70 -7 74
3 3 32 -3 64 -13 78 -24 337 -24 434 -1 l65 15 -90 -5 c-181 -10 -381 27 -532
98 l-83 39 0 -91z"/>
<path d="M1184 1883 c-46 -102 -46 -103 -23 -103 11 0 22 7 25 15 8 21 73 20
89 -1 6 -9 19 -15 28 -13 26 6 -41 153 -71 157 -19 3 -27 -6 -48 -55z m56 -2
c0 -5 3 -16 6 -25 4 -12 0 -16 -15 -16 -22 0 -25 8 -15 34 7 17 24 22 24 7z"/>
<path d="M1350 1933 c0 -5 11 -28 25 -52 14 -23 25 -56 25 -72 0 -22 5 -29 20
-29 15 0 20 7 20 26 0 15 14 51 31 80 29 51 29 54 10 54 -13 0 -26 -11 -36
-30 -9 -16 -19 -30 -24 -30 -5 0 -14 14 -21 30 -8 18 -20 30 -31 30 -11 0 -19
-3 -19 -7z"/>
<path d="M1540 1880 c0 -72 21 -100 74 -100 50 0 76 37 76 106 0 47 -3 54 -20
54 -16 0 -19 -8 -22 -56 -2 -40 -8 -60 -20 -67 -29 -19 -48 9 -48 69 0 47 -2
54 -20 54 -18 0 -20 -7 -20 -60z"/>
<path d="M1740 1860 c0 -73 2 -80 20 -80 15 0 20 7 20 25 0 18 5 25 18 25 11
0 24 -11 30 -25 7 -15 20 -25 32 -25 23 0 25 8 5 34 -12 16 -12 20 1 33 7 8
14 25 14 38 0 39 -25 55 -86 55 l-54 0 0 -80z m95 25 c0 -14 -8 -21 -27 -23
-24 -3 -28 0 -28 23 0 23 4 26 28 23 19 -2 27 -9 27 -23z"/>
<path d="M1930 1860 c0 -73 2 -80 20 -80 17 0 20 7 21 53 l0 52 19 -42 c11
-24 25 -43 33 -43 7 0 23 19 34 43 l22 42 0 -52 c1 -40 5 -53 16 -53 12 0 15
16 15 80 0 76 -1 80 -22 80 -18 0 -28 -12 -44 -48 l-20 -47 -22 48 c-17 38
-26 47 -46 47 -26 0 -26 -1 -26 -80z"/>
<path d="M2170 1860 l0 -80 65 0 c51 0 65 3 65 15 0 11 -12 15 -45 15 -38 0
-45 3 -45 20 0 17 7 20 40 20 29 0 40 4 40 15 0 11 -11 15 -40 15 -29 0 -40 4
-40 15 0 11 12 15 45 15 33 0 45 4 45 15 0 12 -14 15 -65 15 l-65 0 0 -80z"/>
<path d="M2350 1860 l0 -80 49 0 c67 0 101 27 101 80 0 56 -29 80 -97 80 l-53
0 0 -80z m98 38 c7 -7 12 -24 12 -38 0 -32 -17 -50 -47 -50 -21 0 -23 4 -23
50 0 46 2 50 23 50 13 0 28 -5 35 -12z"/>
<path d="M2560 1925 c-22 -26 -4 -60 42 -78 33 -13 39 -20 30 -29 -10 -10 -19
-10 -44 0 -21 8 -36 8 -42 2 -16 -16 8 -32 56 -37 35 -4 47 -1 62 16 26 29 10
64 -35 77 -18 5 -35 16 -37 23 -4 11 4 13 36 8 30 -5 41 -3 45 7 3 8 -1 17 -9
20 -30 11 -92 6 -104 -9z"/>
<path d="M2720 1860 c0 -73 2 -80 20 -80 17 0 20 7 21 53 l0 52 19 -42 c11
-24 25 -43 33 -43 7 0 23 19 34 43 l22 42 0 -52 c1 -40 5 -53 16 -53 12 0 15
16 15 80 0 76 -1 80 -22 80 -18 0 -28 -12 -44 -48 l-20 -47 -22 48 c-17 38
-26 47 -46 47 -26 0 -26 -1 -26 -80z"/>
<path d="M2981 1865 c-17 -41 -31 -77 -31 -80 0 -12 38 -4 44 10 3 9 19 15 41
15 22 0 38 -6 41 -15 6 -14 44 -22 44 -10 0 3 -14 39 -31 80 -26 61 -36 75
-54 75 -18 0 -28 -14 -54 -75z m57 -23 c-28 -5 -31 1 -16 33 l12 28 12 -29
c11 -26 10 -29 -8 -32z"/>
<path d="M3160 1860 c0 -72 2 -80 19 -80 13 0 21 8 23 22 4 32 32 34 48 3 8
-16 22 -25 37 -25 23 0 23 1 7 26 -13 19 -14 28 -5 37 6 6 11 26 11 44 0 40
-21 53 -89 53 l-51 0 0 -80z m103 38 c8 -24 -5 -38 -34 -38 -24 0 -29 4 -29
25 0 21 5 25 29 25 16 0 31 -6 34 -12z"/>
<path d="M3360 1860 c0 -72 2 -80 19 -80 14 0 21 8 23 27 4 37 20 38 41 3 13
-21 26 -30 43 -30 l25 0 -31 45 c-32 46 -32 54 3 93 l20 22 -21 0 c-12 0 -36
-15 -52 -32 l-29 -33 -1 33 c0 25 -4 32 -20 32 -18 0 -20 -7 -20 -80z"/>
<path d="M3550 1860 l0 -80 65 0 c50 0 65 3 65 14 0 10 -14 16 -42 18 -57 4
-60 32 -5 36 53 5 51 32 -3 32 -29 0 -40 4 -40 15 0 11 12 15 45 15 33 0 45 4
45 15 0 12 -14 15 -65 15 l-65 0 0 -80z"/>
<path d="M3720 1925 c0 -9 9 -15 25 -15 24 0 25 -2 25 -65 0 -58 2 -65 20 -65
18 0 20 7 20 65 0 63 1 65 25 65 16 0 25 6 25 15 0 12 -14 15 -70 15 -56 0
-70 -3 -70 -15z"/>
</g>
</svg>
